<svg width="1294" height="374" viewBox="0 0 1294 374" fill="none" xmlns="http://www.w3.org/2000/svg">
<mask id="path-1-outside-1_1_5" maskUnits="userSpaceOnUse" x="9.94871" y="115.07" width="1275" height="258.497" fill="black">
<rect fill="white" x="9.94871" y="115.07" width="1275" height="258.497"/>
<path d="M22.2161 301.48L20.8657 137.849L89.5779 137.282C108.966 137.122 124.303 140.867 135.588 148.515C146.944 156.163 152.68 166.912 152.794 180.761C152.87 189.922 149.735 197.441 143.392 203.318C137.118 209.123 128.521 213.064 117.601 215.143C126.2 215.783 133.746 217.887 140.239 221.455C146.802 225.023 151.955 229.74 155.697 235.604C159.439 241.468 161.341 248.235 161.404 255.905C161.479 264.925 159.164 272.792 154.461 279.508C149.828 286.151 143.017 291.357 134.028 295.124C125.11 298.82 114.258 300.721 101.475 300.826L22.2161 301.48ZM58.0794 270.821L101.224 270.465C108.326 270.406 113.888 268.691 117.908 265.32C121.928 261.878 123.914 257.245 123.866 251.421C123.81 244.674 121.743 239.4 117.663 235.598C113.582 231.725 107.991 229.818 100.889 229.877L57.7444 230.233L58.0794 270.821ZM57.5387 205.305L90.8827 205.03C96.1382 204.986 100.642 204.203 104.394 202.681C108.145 201.087 111.003 198.897 112.969 196.111C114.934 193.254 115.901 189.872 115.868 185.966C115.822 180.356 113.477 175.971 108.835 172.814C104.263 169.655 97.9291 168.109 89.8328 168.176L57.2345 168.445L57.5387 205.305ZM218.786 189.485L267.044 189.087C287.924 188.914 304.123 193.859 315.642 203.921C327.16 213.982 333.022 227.251 333.229 243.727C333.247 254.452 330.697 263.99 325.581 272.342C320.537 280.694 313.133 287.289 303.372 292.129C293.681 296.896 281.875 299.337 267.955 299.452L193.597 300.066L192.247 136.435L229.426 136.128L230.515 268.12L267.694 267.813C276.075 267.744 282.946 265.556 288.308 261.25C293.67 256.874 296.323 251.312 296.267 244.565C296.209 237.463 293.462 231.697 288.028 227.267C282.593 222.837 275.686 220.657 267.306 220.726L219.047 221.125L218.786 189.485ZM354.032 298.742L352.681 135.111L391.246 134.793L392.596 298.424L354.032 298.742ZM503.76 300.702C487.425 300.837 473.369 297.366 461.592 290.29C449.885 283.213 440.819 273.38 434.394 260.791C428.04 248.129 424.794 233.525 424.657 216.977C424.52 200.359 427.595 185.667 433.882 172.901C440.168 160.065 449.106 150.047 460.695 142.849C472.354 135.58 486.173 131.879 502.153 131.747C515.434 131.637 527.208 133.99 537.475 138.806C547.813 143.551 556.072 150.337 562.253 159.164C568.434 167.92 571.999 178.189 572.948 189.971L536.089 190.276C534.532 182.405 530.927 175.865 525.273 170.655C519.689 165.375 512.246 162.773 502.942 162.849C495.059 162.914 488.152 165.102 482.221 169.413C476.29 173.652 471.688 179.727 468.415 187.638C465.214 195.548 463.658 205.007 463.749 216.016C463.841 227.166 465.553 236.74 468.887 244.738C472.219 252.666 476.851 258.771 482.781 263.055C488.782 267.267 495.795 269.34 503.82 269.273C509.502 269.226 514.571 268.119 519.028 265.952C523.555 263.713 527.329 260.521 530.348 256.376C533.368 252.232 535.422 247.208 536.51 241.304L573.369 241C572.542 252.583 569.217 262.874 563.396 271.871C557.575 280.797 549.607 287.824 539.493 292.95C529.378 298.005 517.467 300.589 503.76 300.702ZM592.53 164.773L592.268 133.134L735.445 131.952L735.707 163.592L682.761 164.029L683.85 296.02L646.565 296.328L645.475 164.337L592.53 164.773ZM768.01 356.691L766.153 131.699L804.078 131.386L804.301 158.445L806.538 158.426C808.494 154.433 811.264 150.184 814.849 145.68C818.434 141.104 823.302 137.193 829.455 133.946C835.607 130.629 843.476 128.93 853.064 128.851C865.706 128.747 877.131 131.884 887.34 138.263C897.62 144.57 905.795 153.985 911.864 166.506C918.004 178.956 921.149 194.271 921.299 212.453C921.447 230.421 918.626 245.714 912.835 258.334C907.044 270.953 899.098 280.607 888.996 287.296C878.895 293.984 867.417 297.382 854.562 297.488C845.188 297.565 837.398 296.067 831.193 292.993C824.989 289.919 819.986 286.196 816.186 281.824C812.456 277.38 809.545 273.178 807.452 269.218L805.854 269.231L806.574 356.373L768.01 356.691ZM804.646 213.202C804.734 223.784 806.302 233.04 809.35 240.97C812.47 248.899 816.889 255.077 822.607 259.504C828.396 263.86 835.374 266.004 843.542 265.937C852.064 265.867 859.183 263.535 864.898 258.942C870.613 254.279 874.893 247.958 877.739 239.979C880.656 231.929 882.072 222.791 881.987 212.564C881.904 202.408 880.373 193.4 877.396 185.541C874.42 177.682 870.036 171.539 864.247 167.112C858.457 162.685 851.266 160.507 842.672 160.578C834.434 160.646 827.456 162.87 821.739 167.25C816.022 171.63 811.705 177.738 808.786 185.575C805.939 193.411 804.559 202.62 804.646 213.202ZM1027.46 296.381C1011.06 296.516 996.862 293.224 984.874 286.504C972.957 279.713 963.75 270.059 957.255 257.541C950.759 244.952 947.44 230.1 947.299 212.984C947.16 196.152 950.234 181.353 956.521 168.588C962.878 155.751 971.815 145.734 983.333 138.536C994.85 131.268 1008.42 127.569 1024.05 127.44C1034.13 127.357 1043.66 128.912 1052.64 132.105C1061.68 135.226 1069.68 140.132 1076.62 146.822C1083.64 153.512 1089.18 162.06 1093.24 172.467C1097.3 182.803 1099.39 195.144 1099.51 209.49L1099.61 221.315L965.488 222.422L965.273 196.429L1062.43 195.627C1062.3 188.241 1060.64 181.685 1057.47 175.958C1054.3 170.16 1049.89 165.616 1044.26 162.324C1038.69 159.032 1032.21 157.416 1024.83 157.477C1016.94 157.542 1010.03 159.517 1004.1 163.401C998.165 167.214 993.555 172.224 990.268 178.431C987.051 184.565 985.438 191.29 985.427 198.606L985.614 221.297C985.693 230.814 987.5 238.967 991.036 245.756C994.572 252.474 999.48 257.619 1005.76 261.189C1012.04 264.689 1019.37 266.404 1027.75 266.335C1033.36 266.288 1038.43 265.465 1042.96 263.865C1047.49 262.194 1051.42 259.782 1054.73 256.63C1058.04 253.478 1060.53 249.586 1062.2 244.956L1098.24 248.707C1096.04 258.242 1091.78 266.587 1085.45 273.742C1079.18 280.825 1071.13 286.361 1061.29 290.348C1051.45 294.265 1040.18 296.276 1027.46 296.381ZM1121.53 292.408L1121.06 260.664L1126.7 260.617C1130.96 260.582 1134.54 259.594 1137.44 257.652C1140.33 255.71 1142.72 252.495 1144.6 248.005C1146.48 243.443 1147.92 237.323 1148.93 229.644C1149.93 221.965 1150.59 212.407 1150.93 200.969L1153.2 128.505L1272.52 127.52L1273.87 291.151L1236.58 291.459L1235.49 159.467L1188.51 159.855L1186.39 212.609C1185.87 226.25 1184.44 238.087 1182.1 248.121C1179.84 258.083 1176.57 266.314 1172.29 272.812C1168.09 279.31 1162.76 284.184 1156.33 287.433C1149.89 290.611 1142.27 292.237 1133.46 292.31L1121.53 292.408Z"/>
</mask>
<path d="M22.2161 301.48L20.8657 137.849L89.5779 137.282C108.966 137.122 124.303 140.867 135.588 148.515C146.944 156.163 152.68 166.912 152.794 180.761C152.87 189.922 149.735 197.441 143.392 203.318C137.118 209.123 128.521 213.064 117.601 215.143C126.2 215.783 133.746 217.887 140.239 221.455C146.802 225.023 151.955 229.74 155.697 235.604C159.439 241.468 161.341 248.235 161.404 255.905C161.479 264.925 159.164 272.792 154.461 279.508C149.828 286.151 143.017 291.357 134.028 295.124C125.11 298.82 114.258 300.721 101.475 300.826L22.2161 301.48ZM58.0794 270.821L101.224 270.465C108.326 270.406 113.888 268.691 117.908 265.32C121.928 261.878 123.914 257.245 123.866 251.421C123.81 244.674 121.743 239.4 117.663 235.598C113.582 231.725 107.991 229.818 100.889 229.877L57.7444 230.233L58.0794 270.821ZM57.5387 205.305L90.8827 205.03C96.1382 204.986 100.642 204.203 104.394 202.681C108.145 201.087 111.003 198.897 112.969 196.111C114.934 193.254 115.901 189.872 115.868 185.966C115.822 180.356 113.477 175.971 108.835 172.814C104.263 169.655 97.9291 168.109 89.8328 168.176L57.2345 168.445L57.5387 205.305ZM218.786 189.485L267.044 189.087C287.924 188.914 304.123 193.859 315.642 203.921C327.16 213.982 333.022 227.251 333.229 243.727C333.247 254.452 330.697 263.99 325.581 272.342C320.537 280.694 313.133 287.289 303.372 292.129C293.681 296.896 281.875 299.337 267.955 299.452L193.597 300.066L192.247 136.435L229.426 136.128L230.515 268.12L267.694 267.813C276.075 267.744 282.946 265.556 288.308 261.25C293.67 256.874 296.323 251.312 296.267 244.565C296.209 237.463 293.462 231.697 288.028 227.267C282.593 222.837 275.686 220.657 267.306 220.726L219.047 221.125L218.786 189.485ZM354.032 298.742L352.681 135.111L391.246 134.793L392.596 298.424L354.032 298.742ZM503.76 300.702C487.425 300.837 473.369 297.366 461.592 290.29C449.885 283.213 440.819 273.38 434.394 260.791C428.04 248.129 424.794 233.525 424.657 216.977C424.52 200.359 427.595 185.667 433.882 172.901C440.168 160.065 449.106 150.047 460.695 142.849C472.354 135.58 486.173 131.879 502.153 131.747C515.434 131.637 527.208 133.99 537.475 138.806C547.813 143.551 556.072 150.337 562.253 159.164C568.434 167.92 571.999 178.189 572.948 189.971L536.089 190.276C534.532 182.405 530.927 175.865 525.273 170.655C519.689 165.375 512.246 162.773 502.942 162.849C495.059 162.914 488.152 165.102 482.221 169.413C476.29 173.652 471.688 179.727 468.415 187.638C465.214 195.548 463.658 205.007 463.749 216.016C463.841 227.166 465.553 236.74 468.887 244.738C472.219 252.666 476.851 258.771 482.781 263.055C488.782 267.267 495.795 269.34 503.82 269.273C509.502 269.226 514.571 268.119 519.028 265.952C523.555 263.713 527.329 260.521 530.348 256.376C533.368 252.232 535.422 247.208 536.51 241.304L573.369 241C572.542 252.583 569.217 262.874 563.396 271.871C557.575 280.797 549.607 287.824 539.493 292.95C529.378 298.005 517.467 300.589 503.76 300.702ZM592.53 164.773L592.268 133.134L735.445 131.952L735.707 163.592L682.761 164.029L683.85 296.02L646.565 296.328L645.475 164.337L592.53 164.773ZM768.01 356.691L766.153 131.699L804.078 131.386L804.301 158.445L806.538 158.426C808.494 154.433 811.264 150.184 814.849 145.68C818.434 141.104 823.302 137.193 829.455 133.946C835.607 130.629 843.476 128.93 853.064 128.851C865.706 128.747 877.131 131.884 887.34 138.263C897.62 144.57 905.795 153.985 911.864 166.506C918.004 178.956 921.149 194.271 921.299 212.453C921.447 230.421 918.626 245.714 912.835 258.334C907.044 270.953 899.098 280.607 888.996 287.296C878.895 293.984 867.417 297.382 854.562 297.488C845.188 297.565 837.398 296.067 831.193 292.993C824.989 289.919 819.986 286.196 816.186 281.824C812.456 277.38 809.545 273.178 807.452 269.218L805.854 269.231L806.574 356.373L768.01 356.691ZM804.646 213.202C804.734 223.784 806.302 233.04 809.35 240.97C812.47 248.899 816.889 255.077 822.607 259.504C828.396 263.86 835.374 266.004 843.542 265.937C852.064 265.867 859.183 263.535 864.898 258.942C870.613 254.279 874.893 247.958 877.739 239.979C880.656 231.929 882.072 222.791 881.987 212.564C881.904 202.408 880.373 193.4 877.396 185.541C874.42 177.682 870.036 171.539 864.247 167.112C858.457 162.685 851.266 160.507 842.672 160.578C834.434 160.646 827.456 162.87 821.739 167.25C816.022 171.63 811.705 177.738 808.786 185.575C805.939 193.411 804.559 202.62 804.646 213.202ZM1027.46 296.381C1011.06 296.516 996.862 293.224 984.874 286.504C972.957 279.713 963.75 270.059 957.255 257.541C950.759 244.952 947.44 230.1 947.299 212.984C947.16 196.152 950.234 181.353 956.521 168.588C962.878 155.751 971.815 145.734 983.333 138.536C994.85 131.268 1008.42 127.569 1024.05 127.44C1034.13 127.357 1043.66 128.912 1052.64 132.105C1061.68 135.226 1069.68 140.132 1076.62 146.822C1083.64 153.512 1089.18 162.06 1093.24 172.467C1097.3 182.803 1099.39 195.144 1099.51 209.49L1099.61 221.315L965.488 222.422L965.273 196.429L1062.43 195.627C1062.3 188.241 1060.64 181.685 1057.47 175.958C1054.3 170.16 1049.89 165.616 1044.26 162.324C1038.69 159.032 1032.21 157.416 1024.83 157.477C1016.94 157.542 1010.03 159.517 1004.1 163.401C998.165 167.214 993.555 172.224 990.268 178.431C987.051 184.565 985.438 191.29 985.427 198.606L985.614 221.297C985.693 230.814 987.5 238.967 991.036 245.756C994.572 252.474 999.48 257.619 1005.76 261.189C1012.04 264.689 1019.37 266.404 1027.75 266.335C1033.36 266.288 1038.43 265.465 1042.96 263.865C1047.49 262.194 1051.42 259.782 1054.73 256.63C1058.04 253.478 1060.53 249.586 1062.2 244.956L1098.24 248.707C1096.04 258.242 1091.78 266.587 1085.45 273.742C1079.18 280.825 1071.13 286.361 1061.29 290.348C1051.45 294.265 1040.18 296.276 1027.46 296.381ZM1121.53 292.408L1121.06 260.664L1126.7 260.617C1130.96 260.582 1134.54 259.594 1137.44 257.652C1140.33 255.71 1142.72 252.495 1144.6 248.005C1146.48 243.443 1147.92 237.323 1148.93 229.644C1149.93 221.965 1150.59 212.407 1150.93 200.969L1153.2 128.505L1272.52 127.52L1273.87 291.151L1236.58 291.459L1235.49 159.467L1188.51 159.855L1186.39 212.609C1185.87 226.25 1184.44 238.087 1182.1 248.121C1179.84 258.083 1176.57 266.314 1172.29 272.812C1168.09 279.31 1162.76 284.184 1156.33 287.433C1149.89 290.611 1142.27 292.237 1133.46 292.31L1121.53 292.408Z" fill="#ABDFF0"/>
<path d="M22.2161 301.48L12.2164 301.563L12.2989 311.562L22.2986 311.48L22.2161 301.48ZM20.8657 137.849L20.7832 127.85L10.7835 127.932L10.8661 137.932L20.8657 137.849ZM135.588 148.515L129.978 156.793L129.99 156.801L130.002 156.81L135.588 148.515ZM143.392 203.318L150.183 210.658L150.187 210.654L143.392 203.318ZM117.601 215.143L115.731 205.32L116.859 225.116L117.601 215.143ZM140.239 221.455L135.422 230.219L135.442 230.23L135.463 230.241L140.239 221.455ZM155.697 235.604L164.127 230.225L164.127 230.225L155.697 235.604ZM154.461 279.508L146.27 273.771L146.264 273.779L146.259 273.788L154.461 279.508ZM134.028 295.124L137.857 304.362L137.875 304.355L137.894 304.347L134.028 295.124ZM58.0794 270.821L48.0797 270.904L48.1622 280.903L58.1619 280.821L58.0794 270.821ZM117.908 265.32L124.333 272.983L124.373 272.949L124.412 272.916L117.908 265.32ZM117.663 235.598L110.779 242.851L110.812 242.883L110.846 242.914L117.663 235.598ZM57.7444 230.233L57.6619 220.233L47.6622 220.316L47.7447 230.315L57.7444 230.233ZM57.5387 205.305L47.539 205.387L47.6215 215.387L57.6212 215.304L57.5387 205.305ZM104.394 202.681L108.154 211.947L108.229 211.916L108.303 211.885L104.394 202.681ZM112.969 196.111L121.14 201.876L121.174 201.827L121.208 201.778L112.969 196.111ZM108.835 172.814L103.151 181.041L103.181 181.062L103.211 181.082L108.835 172.814ZM57.2345 168.445L57.152 158.446L47.1523 158.528L47.2348 168.528L57.2345 168.445ZM32.2157 301.398L30.8654 137.767L10.8661 137.932L12.2164 301.563L32.2157 301.398ZM20.9482 147.849L89.6604 147.282L89.4953 127.283L20.7832 127.85L20.9482 147.849ZM89.6604 147.282C107.844 147.132 120.944 150.67 129.978 156.793L141.199 140.237C127.662 131.063 110.089 127.113 89.4953 127.283L89.6604 147.282ZM130.002 156.81C138.586 162.59 142.707 170.246 142.794 180.843L162.794 180.678C162.652 163.577 155.303 149.736 141.174 140.221L130.002 156.81ZM142.794 180.843C142.848 187.38 140.741 192.142 136.596 195.982L150.187 210.654C158.73 202.741 162.891 192.465 162.794 180.678L142.794 180.843ZM136.6 195.978C132.058 200.18 125.354 203.488 115.731 205.32L119.471 224.967C131.689 222.641 142.178 218.065 150.183 210.658L136.6 195.978ZM116.859 225.116C124.262 225.666 130.375 227.445 135.422 230.219L145.056 212.692C137.117 208.329 128.138 205.899 118.342 205.171L116.859 225.116ZM135.463 230.241C140.653 233.063 144.502 236.65 147.267 240.983L164.127 230.225C159.408 222.829 152.952 216.984 145.015 212.67L135.463 230.241ZM147.267 240.983C149.896 245.104 151.355 249.996 151.405 255.988L171.404 255.823C171.327 246.474 168.981 237.832 164.127 230.225L147.267 240.983ZM151.405 255.988C151.464 263.145 149.66 268.931 146.27 273.771L162.652 285.244C168.669 276.654 171.494 266.704 171.404 255.823L151.405 255.988ZM146.259 273.788C142.913 278.585 137.762 282.716 130.163 285.901L137.894 304.347C148.273 299.997 156.744 293.717 162.664 285.227L146.259 273.788ZM130.2 285.886C122.786 288.958 113.284 290.728 101.392 290.827L101.557 310.826C115.232 310.713 127.433 308.682 137.857 304.362L130.2 285.886ZM101.392 290.827L22.1336 291.481L22.2986 311.48L101.557 310.826L101.392 290.827ZM58.1619 280.821L101.307 280.465L101.142 260.465L57.9968 260.821L58.1619 280.821ZM101.307 280.465C109.91 280.394 117.993 278.299 124.333 272.983L111.483 257.657C109.782 259.084 106.743 260.419 101.142 260.465L101.307 280.465ZM124.412 272.916C130.915 267.347 133.935 259.777 133.866 251.338L113.866 251.503C113.893 254.712 112.941 256.408 111.404 257.724L124.412 272.916ZM133.866 251.338C133.793 242.466 130.982 234.34 124.48 228.282L110.846 242.914C112.504 244.459 113.828 246.882 113.866 251.503L133.866 251.338ZM124.547 228.345C118.128 222.252 109.787 219.803 100.807 219.877L100.972 239.877C106.195 239.833 109.037 241.198 110.779 242.851L124.547 228.345ZM100.807 219.877L57.6619 220.233L57.8269 240.233L100.972 239.877L100.807 219.877ZM47.7447 230.315L48.0797 270.904L68.079 270.739L67.7441 230.15L47.7447 230.315ZM57.6212 215.304L90.9652 215.029L90.8002 195.03L57.4562 195.305L57.6212 215.304ZM90.9652 215.029C97.1242 214.978 102.942 214.062 108.154 211.947L100.633 193.415C98.3414 194.345 95.1522 194.994 90.8002 195.03L90.9652 215.029ZM108.303 211.885C113.43 209.707 117.908 206.457 121.14 201.876L104.798 190.346C104.098 191.338 102.86 192.468 100.484 193.477L108.303 211.885ZM121.208 201.778C124.48 197.021 125.915 191.572 125.868 185.884L105.869 186.049C105.886 188.173 105.388 189.487 104.73 190.444L121.208 201.778ZM125.868 185.884C125.795 176.989 121.813 169.547 114.459 164.545L103.211 181.082C105.142 182.396 105.849 183.722 105.869 186.049L125.868 185.884ZM114.519 164.586C107.64 159.834 99.0074 158.1 89.7503 158.177L89.9153 178.176C96.8509 178.119 100.886 179.477 103.151 181.041L114.519 164.586ZM89.7503 158.177L57.152 158.446L57.317 178.445L89.9153 178.176L89.7503 158.177ZM47.2348 168.528L47.539 205.387L67.5383 205.222L67.2342 168.363L47.2348 168.528ZM218.786 189.485L218.704 179.485L208.704 179.568L208.786 189.567L218.786 189.485ZM333.229 243.727L343.229 243.711L343.229 243.656L343.228 243.601L333.229 243.727ZM325.581 272.342L317.054 267.119L317.038 267.145L317.022 267.172L325.581 272.342ZM303.372 292.129L307.786 301.101L307.8 301.095L307.813 301.088L303.372 292.129ZM193.597 300.066L183.597 300.148L183.68 310.148L193.679 310.066L193.597 300.066ZM192.247 136.435L192.164 126.435L182.164 126.518L182.247 136.518L192.247 136.435ZM229.426 136.128L239.425 136.046L239.343 126.046L229.343 126.129L229.426 136.128ZM230.515 268.12L220.515 268.202L220.598 278.202L230.598 278.119L230.515 268.12ZM288.308 261.25L294.569 269.048L294.601 269.023L294.632 268.997L288.308 261.25ZM288.028 227.267L281.71 235.018L281.71 235.018L288.028 227.267ZM219.047 221.125L209.048 221.207L209.13 231.207L219.13 231.124L219.047 221.125ZM354.032 298.742L344.032 298.824L344.115 308.824L354.114 308.742L354.032 298.742ZM352.681 135.111L352.599 125.111L342.599 125.194L342.682 135.194L352.681 135.111ZM391.246 134.793L401.245 134.71L401.163 124.711L391.163 124.793L391.246 134.793ZM392.596 298.424L392.678 308.423L402.678 308.341L402.596 298.341L392.596 298.424ZM218.869 199.485L267.127 199.086L266.962 179.087L218.704 179.485L218.869 199.485ZM267.127 199.086C286.459 198.927 299.969 203.508 309.063 211.452L322.22 196.389C308.278 184.21 289.39 178.902 266.962 179.087L267.127 199.086ZM309.063 211.452C318.26 219.486 323.056 229.972 323.23 243.853L343.228 243.601C342.989 224.53 336.059 208.478 322.22 196.389L309.063 211.452ZM323.229 243.743C323.244 252.801 321.113 260.492 317.054 267.119L334.109 277.566C340.281 267.489 343.249 256.103 343.229 243.711L323.229 243.743ZM317.022 267.172C313.073 273.709 307.192 279.073 298.93 283.169L307.813 301.088C319.075 295.505 328 287.679 334.141 277.513L317.022 267.172ZM298.958 283.156C290.946 287.097 280.709 289.347 267.873 289.453L268.038 309.452C283.042 309.328 296.415 306.695 307.786 301.101L298.958 283.156ZM267.873 289.453L193.514 290.066L193.679 310.066L268.038 309.452L267.873 289.453ZM203.597 299.983L202.246 136.353L182.247 136.518L183.597 300.148L203.597 299.983ZM192.329 146.435L229.508 146.128L229.343 126.129L192.164 126.435L192.329 146.435ZM219.426 136.211L220.515 268.202L240.515 268.037L239.425 136.046L219.426 136.211ZM230.598 278.119L267.777 277.812L267.612 257.813L230.432 258.12L230.598 278.119ZM267.777 277.812C277.899 277.729 287.096 275.049 294.569 269.048L282.047 253.453C278.796 256.064 274.25 257.758 267.612 257.813L267.777 277.812ZM294.632 268.997C302.272 262.76 306.349 254.351 306.267 244.482L286.268 244.647C286.298 248.272 285.068 250.987 281.985 253.504L294.632 268.997ZM306.267 244.482C306.184 234.448 302.122 225.855 294.346 219.516L281.71 235.018C284.802 237.539 286.233 240.477 286.268 244.647L306.267 244.482ZM294.346 219.516C286.769 213.339 277.459 210.642 267.223 210.727L267.388 230.726C273.913 230.672 278.418 232.335 281.71 235.018L294.346 219.516ZM267.223 210.727L218.965 211.125L219.13 231.124L267.388 230.726L267.223 210.727ZM229.047 221.042L228.786 189.402L208.786 189.567L209.048 221.207L229.047 221.042ZM364.032 298.659L362.681 135.029L342.682 135.194L344.032 298.824L364.032 298.659ZM352.764 145.111L391.328 144.793L391.163 124.793L352.599 125.111L352.764 145.111ZM381.246 134.875L382.596 298.506L402.596 298.341L401.245 134.71L381.246 134.875ZM392.513 288.424L353.949 288.742L354.114 308.742L392.678 308.423L392.513 288.424ZM461.592 290.29L456.418 298.848L456.43 298.855L456.442 298.862L461.592 290.29ZM434.394 260.791L425.457 265.276L425.472 265.306L425.487 265.336L434.394 260.791ZM433.882 172.901L442.853 177.319L442.858 177.309L442.863 177.299L433.882 172.901ZM460.695 142.849L465.971 151.344L465.978 151.339L465.986 151.335L460.695 142.849ZM537.475 138.806L533.228 147.86L533.266 147.878L533.304 147.895L537.475 138.806ZM562.253 159.164L554.062 164.9L554.073 164.915L554.083 164.93L562.253 159.164ZM572.948 189.971L573.031 199.971L583.779 199.882L582.916 189.168L572.948 189.971ZM536.089 190.276L526.279 192.216L527.886 200.344L536.171 200.275L536.089 190.276ZM525.273 170.655L518.402 177.921L518.449 177.966L518.497 178.01L525.273 170.655ZM482.221 169.413L488.036 177.548L488.069 177.525L488.101 177.502L482.221 169.413ZM468.415 187.638L459.175 183.815L459.16 183.85L459.146 183.886L468.415 187.638ZM468.887 244.738L459.656 248.585L459.662 248.599L459.668 248.614L468.887 244.738ZM482.781 263.055L476.926 271.161L476.981 271.201L477.036 271.24L482.781 263.055ZM519.028 265.952L523.402 274.944L523.431 274.93L523.461 274.915L519.028 265.952ZM530.348 256.376L522.266 250.487L522.266 250.487L530.348 256.376ZM536.51 241.304L536.427 231.304L528.171 231.372L526.675 239.492L536.51 241.304ZM573.369 241L583.344 241.712L584.116 230.91L573.287 231L573.369 241ZM563.396 271.871L571.773 277.334L571.783 277.319L571.793 277.303L563.396 271.871ZM539.493 292.95L543.963 301.895L543.989 301.882L544.014 301.87L539.493 292.95ZM503.678 290.703C488.834 290.825 476.664 287.68 466.742 281.718L456.442 298.862C470.075 307.053 486.017 310.849 503.843 310.702L503.678 290.703ZM466.765 281.732C456.707 275.652 448.909 267.233 443.301 256.245L425.487 265.336C432.729 279.527 443.063 290.774 456.418 298.848L466.765 281.732ZM443.332 256.305C437.77 245.223 434.783 232.169 434.657 216.895L414.658 217.06C414.805 234.881 418.31 251.036 425.457 265.276L443.332 256.305ZM434.657 216.895C434.531 201.574 437.362 188.468 442.853 177.319L424.911 168.483C417.828 182.865 414.51 199.143 414.658 217.06L434.657 216.895ZM442.863 177.299C448.365 166.065 456.055 157.503 465.971 151.344L455.418 134.355C442.157 142.592 431.972 154.065 424.901 168.503L442.863 177.299ZM465.986 151.335C475.841 145.19 487.793 141.866 502.235 141.747L502.07 121.747C484.553 121.892 468.867 125.969 455.404 134.364L465.986 151.335ZM502.235 141.747C514.275 141.647 524.528 143.779 533.228 147.86L541.722 129.753C529.887 124.202 516.592 121.627 502.07 121.747L502.235 141.747ZM533.304 147.895C542.121 151.941 548.957 157.609 554.062 164.9L570.445 153.428C563.188 143.064 553.505 135.16 541.646 129.718L533.304 147.895ZM554.083 164.93C559.127 172.075 562.16 180.589 562.98 190.775L582.916 189.168C581.838 175.789 577.741 163.764 570.423 153.397L554.083 164.93ZM572.866 179.972L536.006 180.276L536.171 200.275L573.031 199.971L572.866 179.972ZM545.899 188.336C543.95 178.481 539.334 170.013 532.049 163.301L518.497 178.01C522.52 181.716 525.114 186.329 526.279 192.216L545.899 188.336ZM532.144 163.39C524.302 155.973 514.17 152.756 502.86 152.85L503.025 172.849C510.322 172.789 515.077 174.776 518.402 177.921L532.144 163.39ZM502.86 152.85C493.058 152.931 484.088 155.694 476.342 161.324L488.101 177.502C492.216 174.511 497.06 172.898 503.025 172.849L502.86 152.85ZM476.406 161.277C468.704 166.783 463.037 174.48 459.175 183.815L477.656 191.461C480.34 184.974 483.877 180.521 488.036 177.548L476.406 161.277ZM459.146 183.886C455.331 193.311 453.651 204.14 453.749 216.098L473.749 215.933C473.666 205.874 475.096 197.785 477.685 191.39L459.146 183.886ZM453.749 216.098C453.849 228.186 455.705 239.105 459.656 248.585L478.117 240.892C475.402 234.375 473.833 226.145 473.749 215.933L453.749 216.098ZM459.668 248.614C463.586 257.933 469.263 265.626 476.926 271.161L488.637 254.948C484.438 251.916 480.853 247.398 478.105 240.863L459.668 248.614ZM477.036 271.24C484.905 276.763 494.001 279.355 503.903 279.273L503.738 259.274C497.589 259.324 492.659 257.77 488.526 254.87L477.036 271.24ZM503.903 279.273C510.854 279.216 517.424 277.852 523.402 274.944L514.654 256.959C511.718 258.387 508.15 259.237 503.738 259.274L503.903 279.273ZM523.461 274.915C529.458 271.949 534.475 267.693 538.43 262.265L522.266 250.487C520.182 253.348 517.652 255.476 514.594 256.988L523.461 274.915ZM538.43 262.265C542.471 256.72 545.031 250.243 546.344 243.115L526.675 239.492C525.813 244.173 524.266 247.744 522.266 250.487L538.43 262.265ZM536.592 251.303L573.452 250.999L573.287 231L536.427 231.304L536.592 251.303ZM563.395 240.287C562.677 250.334 559.83 258.974 555 266.439L571.793 277.303C578.604 266.774 582.406 254.833 583.344 241.712L563.395 240.287ZM555.02 266.409C550.22 273.769 543.624 279.645 534.972 284.03L544.014 301.87C555.59 296.002 564.93 287.826 571.773 277.334L555.02 266.409ZM535.022 284.005C526.53 288.249 516.179 290.6 503.678 290.703L503.843 310.702C518.755 310.579 532.226 307.761 543.963 301.895L535.022 284.005ZM592.53 164.773L582.53 164.856L582.612 174.856L592.612 174.773L592.53 164.773ZM592.268 133.134L592.186 123.134L582.186 123.217L582.269 133.216L592.268 133.134ZM735.445 131.952L745.445 131.87L745.363 121.87L735.363 121.953L735.445 131.952ZM735.707 163.592L735.789 173.592L745.789 173.509L745.706 163.509L735.707 163.592ZM682.761 164.029L682.678 154.029L672.679 154.112L672.761 164.111L682.761 164.029ZM683.85 296.02L683.933 306.02L693.932 305.937L693.85 295.938L683.85 296.02ZM646.565 296.328L636.565 296.41L636.647 306.41L646.647 306.327L646.565 296.328ZM645.475 164.337L655.475 164.254L655.392 154.254L645.393 154.337L645.475 164.337ZM602.529 164.691L602.268 133.051L582.269 133.216L582.53 164.856L602.529 164.691ZM592.351 143.134L735.528 141.952L735.363 121.953L592.186 123.134L592.351 143.134ZM725.446 132.035L725.707 163.674L745.706 163.509L745.445 131.87L725.446 132.035ZM735.624 153.592L682.678 154.029L682.843 174.028L735.789 173.592L735.624 153.592ZM672.761 164.111L673.851 296.103L693.85 295.938L692.761 163.946L672.761 164.111ZM683.768 286.02L646.482 286.328L646.647 306.327L683.933 306.02L683.768 286.02ZM656.564 296.245L655.475 164.254L635.476 164.419L636.565 296.41L656.564 296.245ZM645.393 154.337L592.447 154.774L592.612 174.773L645.558 174.336L645.393 154.337ZM768.01 356.691L758.01 356.774L758.092 366.773L768.092 366.691L768.01 356.691ZM766.153 131.699L766.07 121.699L756.071 121.782L756.153 131.781L766.153 131.699ZM804.078 131.386L814.077 131.303L813.995 121.304L803.995 121.386L804.078 131.386ZM804.301 158.445L794.301 158.527L794.384 168.527L804.384 168.444L804.301 158.445ZM806.538 158.426L806.621 168.426L812.801 168.375L815.519 162.824L806.538 158.426ZM814.849 145.68L822.674 151.907L822.697 151.877L822.721 151.847L814.849 145.68ZM829.455 133.946L834.122 142.79L834.162 142.769L834.202 142.748L829.455 133.946ZM887.34 138.263L882.041 146.744L882.076 146.765L882.111 146.786L887.34 138.263ZM911.864 166.506L902.866 170.868L902.88 170.899L902.895 170.929L911.864 166.506ZM912.835 258.334L903.746 254.163L903.746 254.163L912.835 258.334ZM888.996 287.296L894.517 295.633L894.517 295.633L888.996 287.296ZM831.193 292.993L826.754 301.954L826.754 301.954L831.193 292.993ZM816.186 281.824L808.527 288.253L808.582 288.319L808.639 288.384L816.186 281.824ZM807.452 269.218L816.294 264.546L813.452 259.168L807.37 259.218L807.452 269.218ZM805.854 269.231L805.772 259.231L795.772 259.314L795.855 269.314L805.854 269.231ZM806.574 356.373L806.656 366.373L816.656 366.29L816.573 356.29L806.574 356.373ZM809.35 240.97L800.016 244.558L800.03 244.595L800.044 244.631L809.35 240.97ZM822.607 259.504L816.485 267.412L816.54 267.454L816.595 267.495L822.607 259.504ZM864.898 258.942L871.162 266.737L871.192 266.714L871.221 266.69L864.898 258.942ZM877.739 239.979L868.337 236.573L868.329 236.596L868.321 236.619L877.739 239.979ZM877.396 185.541L886.748 181.999L886.748 181.999L877.396 185.541ZM864.247 167.112L870.321 159.168L870.321 159.168L864.247 167.112ZM821.739 167.25L827.821 175.188L827.821 175.188L821.739 167.25ZM808.786 185.575L799.415 182.085L799.401 182.122L799.388 182.16L808.786 185.575ZM778.009 356.609L776.153 131.616L756.153 131.781L758.01 356.774L778.009 356.609ZM766.235 141.699L804.16 141.386L803.995 121.386L766.07 121.699L766.235 141.699ZM794.078 131.468L794.301 158.527L814.301 158.362L814.077 131.303L794.078 131.468ZM804.384 168.444L806.621 168.426L806.456 148.427L804.218 148.445L804.384 168.444ZM815.519 162.824C817.079 159.638 819.415 156.001 822.674 151.907L807.025 139.452C803.114 144.366 799.908 149.227 797.557 154.028L815.519 162.824ZM822.721 151.847C825.284 148.576 828.973 145.508 834.122 142.79L824.787 125.103C817.631 128.879 811.584 133.633 806.978 139.512L822.721 151.847ZM834.202 142.748C838.487 140.437 844.612 138.921 853.147 138.851L852.982 118.851C842.34 118.939 832.727 120.82 824.708 125.145L834.202 142.748ZM853.147 138.851C863.987 138.761 873.528 141.424 882.041 146.744L892.639 129.782C880.734 122.344 867.425 118.732 852.982 118.851L853.147 138.851ZM882.111 146.786C890.524 151.949 897.498 159.795 902.866 170.868L920.863 162.144C914.091 148.175 904.716 137.192 892.57 129.74L882.111 146.786ZM902.895 170.929C908.196 181.677 911.158 195.412 911.299 212.535L931.299 212.37C931.14 193.131 927.812 176.235 920.833 162.083L902.895 170.929ZM911.299 212.535C911.439 229.451 908.773 243.209 903.746 254.163L921.924 262.504C928.479 248.22 931.456 231.391 931.299 212.37L911.299 212.535ZM903.746 254.163C898.617 265.341 891.806 273.442 883.476 278.958L894.517 295.633C906.39 287.772 915.471 276.565 921.924 262.504L903.746 254.163ZM883.476 278.958C875.088 284.511 865.523 287.397 854.48 287.488L854.645 307.487C869.311 307.366 882.702 303.457 894.517 295.633L883.476 278.958ZM854.48 287.488C846.145 287.557 840.025 286.209 835.633 284.032L826.754 301.954C834.771 305.925 844.23 307.573 854.645 307.487L854.48 287.488ZM835.633 284.032C830.386 281.433 826.515 278.463 823.733 275.264L808.639 288.384C813.458 293.929 819.592 298.405 826.754 301.954L835.633 284.032ZM823.845 275.395C820.445 271.343 817.975 267.728 816.294 264.546L798.611 273.89C801.114 278.628 804.467 283.417 808.527 288.253L823.845 275.395ZM807.37 259.218L805.772 259.231L805.937 279.231L807.535 279.218L807.37 259.218ZM795.855 269.314L796.574 356.456L816.573 356.29L815.854 269.149L795.855 269.314ZM806.491 346.373L767.927 346.692L768.092 366.691L806.656 366.373L806.491 346.373ZM794.647 213.285C794.742 224.782 796.446 235.272 800.016 244.558L818.684 237.381C816.157 230.808 814.726 222.786 814.646 213.12L794.647 213.285ZM800.044 244.631C803.705 253.935 809.106 261.699 816.485 267.412L828.729 251.597C824.671 248.455 821.234 243.863 818.656 237.309L800.044 244.631ZM816.595 267.495C824.361 273.339 833.554 276.02 843.624 275.937L843.459 255.937C837.195 255.989 832.431 254.382 828.62 251.514L816.595 267.495ZM843.624 275.937C854.015 275.851 863.417 272.961 871.162 266.737L858.634 251.147C854.949 254.109 850.114 255.882 843.459 255.937L843.624 275.937ZM871.221 266.69C878.547 260.71 883.792 252.775 887.158 243.339L868.321 236.619C865.994 243.14 862.678 247.847 858.575 251.195L871.221 266.69ZM887.141 243.386C890.533 234.024 892.079 223.672 891.987 212.481L871.988 212.646C872.064 221.91 870.778 229.835 868.337 236.573L887.141 243.386ZM891.987 212.481C891.896 201.382 890.221 191.168 886.748 181.999L868.045 189.083C870.526 195.633 871.912 203.434 871.988 212.646L891.987 212.481ZM886.748 181.999C883.214 172.668 877.808 164.893 870.321 159.168L858.173 175.056C862.265 178.185 865.625 182.696 868.045 189.083L886.748 181.999ZM870.321 159.168C862.462 153.159 852.993 150.493 842.59 150.579L842.755 170.578C849.538 170.522 854.452 172.212 858.173 175.056L870.321 159.168ZM842.59 150.579C832.507 150.662 823.34 153.427 815.658 159.312L827.821 175.188C831.573 172.314 836.36 170.631 842.755 170.578L842.59 150.579ZM815.658 159.312C808.22 165.01 802.882 172.775 799.415 182.085L818.158 189.065C820.527 182.701 823.825 178.25 827.821 175.188L815.658 159.312ZM799.388 182.16C796.04 191.373 794.552 201.817 794.647 213.285L814.646 213.12C814.566 203.423 815.838 195.449 818.185 188.99L799.388 182.16ZM984.874 286.504L979.923 295.193L979.953 295.21L979.984 295.227L984.874 286.504ZM957.255 257.541L948.368 262.127L948.373 262.137L948.379 262.147L957.255 257.541ZM956.521 168.588L947.559 164.15L947.554 164.16L947.55 164.17L956.521 168.588ZM983.333 138.536L988.633 147.016L988.651 147.005L988.67 146.993L983.333 138.536ZM1052.64 132.105L1049.28 141.526L1049.33 141.542L1049.37 141.558L1052.64 132.105ZM1076.62 146.822L1069.68 154.024L1069.7 154.042L1069.72 154.059L1076.62 146.822ZM1093.24 172.467L1083.93 176.104L1083.93 176.115L1083.93 176.125L1093.24 172.467ZM1099.61 221.315L1099.69 231.315L1109.69 231.232L1109.61 221.233L1099.61 221.315ZM965.488 222.422L955.488 222.505L955.571 232.504L965.57 232.422L965.488 222.422ZM965.273 196.429L965.191 186.429L955.191 186.512L955.274 196.511L965.273 196.429ZM1062.43 195.627L1062.51 205.627L1072.61 205.543L1072.43 195.448L1062.43 195.627ZM1057.47 175.958L1048.7 180.759L1048.71 180.782L1048.73 180.804L1057.47 175.958ZM1044.26 162.324L1039.17 170.932L1039.19 170.946L1039.21 170.96L1044.26 162.324ZM1004.1 163.401L1009.51 171.814L1009.54 171.791L1009.58 171.768L1004.1 163.401ZM990.268 178.431L981.431 173.75L981.421 173.769L981.411 173.787L990.268 178.431ZM985.427 198.606L975.427 198.592L975.427 198.64L975.427 198.689L985.427 198.606ZM991.036 245.756L982.167 250.376L982.177 250.395L982.187 250.413L991.036 245.756ZM1005.76 261.189L1000.82 269.882L1000.85 269.903L1000.89 269.924L1005.76 261.189ZM1042.96 263.865L1046.29 273.295L1046.36 273.272L1046.42 273.248L1042.96 263.865ZM1062.2 244.956L1063.23 235.009L1055.44 234.199L1052.79 241.57L1062.2 244.956ZM1098.24 248.707L1107.98 250.949L1110.52 239.931L1099.27 238.76L1098.24 248.707ZM1085.45 273.742L1077.96 267.114L1077.96 267.118L1085.45 273.742ZM1061.29 290.348L1064.99 299.639L1065.02 299.628L1065.05 299.616L1061.29 290.348ZM1027.38 286.381C1012.38 286.505 999.963 283.499 989.763 277.781L979.984 295.227C993.76 302.949 1009.74 306.527 1027.55 306.38L1027.38 286.381ZM989.825 277.816C979.631 272.007 971.765 263.793 966.131 252.935L948.379 262.147C955.735 276.324 966.282 287.419 979.923 295.193L989.825 277.816ZM966.141 252.955C960.499 242.02 957.429 228.772 957.298 212.901L937.299 213.066C937.45 231.427 941.018 247.884 948.368 262.127L966.141 252.955ZM957.298 212.901C957.17 197.346 960.009 184.138 965.492 173.006L947.55 164.17C940.458 178.569 937.149 194.958 937.299 213.066L957.298 212.901ZM965.482 173.026C971.064 161.755 978.774 153.177 988.633 147.016L978.034 130.056C964.857 138.29 954.692 149.747 947.559 164.15L965.482 173.026ZM988.67 146.993C998.392 140.857 1010.08 137.555 1024.13 137.44L1023.96 117.44C1006.76 117.582 991.308 121.678 977.996 130.079L988.67 146.993ZM1024.13 137.44C1033.11 137.365 1041.47 138.748 1049.28 141.526L1055.99 122.683C1045.85 119.075 1035.15 117.348 1023.96 117.44L1024.13 137.44ZM1049.37 141.558C1057.03 144.201 1063.78 148.334 1069.68 154.024L1083.56 139.62C1075.58 131.929 1066.33 126.251 1055.9 122.652L1049.37 141.558ZM1069.72 154.059C1075.53 159.597 1080.31 166.852 1083.93 176.104L1102.56 168.83C1098.04 157.268 1091.75 147.426 1083.52 139.585L1069.72 154.059ZM1083.93 176.125C1087.44 185.043 1089.4 196.111 1089.51 209.573L1109.51 209.408C1109.39 194.178 1107.17 180.563 1102.55 168.809L1083.93 176.125ZM1089.51 209.573L1089.61 221.398L1109.61 221.233L1109.51 209.408L1089.51 209.573ZM1099.53 211.316L965.405 212.422L965.57 232.422L1099.69 231.315L1099.53 211.316ZM975.488 222.34L975.273 196.346L955.274 196.511L955.488 222.505L975.488 222.34ZM965.356 206.428L1062.51 205.627L1062.35 185.627L965.191 186.429L965.356 206.428ZM1072.43 195.448C1072.27 186.641 1070.28 178.444 1066.22 171.113L1048.73 180.804C1051.01 184.926 1052.32 189.842 1052.43 195.806L1072.43 195.448ZM1066.24 171.158C1062.21 163.787 1056.52 157.907 1049.3 153.688L1039.21 170.96C1043.26 173.324 1046.39 176.534 1048.7 180.759L1066.24 171.158ZM1049.35 153.716C1042 149.373 1033.68 147.404 1024.74 147.477L1024.91 167.477C1030.74 167.429 1035.38 168.691 1039.17 170.932L1049.35 153.716ZM1024.74 147.477C1015.16 147.556 1006.34 149.985 998.623 155.034L1009.58 171.768C1013.73 169.049 1018.72 167.528 1024.91 167.477L1024.74 147.477ZM998.694 154.988C991.321 159.726 985.525 166.019 981.431 173.75L999.105 183.111C1001.58 178.43 1005.01 174.703 1009.51 171.814L998.694 154.988ZM981.411 173.787C977.404 181.43 975.44 189.757 975.427 198.592L995.427 198.621C995.435 192.824 996.699 187.7 999.124 183.074L981.411 173.787ZM975.427 198.689L975.615 221.38L995.614 221.215L995.427 198.524L975.427 198.689ZM975.615 221.38C975.703 232.1 977.745 241.885 982.167 250.376L999.905 241.137C997.255 236.049 995.682 229.528 995.614 221.215L975.615 221.38ZM982.187 250.413C986.565 258.732 992.789 265.318 1000.82 269.882L1010.7 252.496C1006.17 249.919 1002.58 246.217 999.886 241.099L982.187 250.413ZM1000.89 269.924C1008.92 274.397 1018.01 276.415 1027.83 276.334L1027.67 256.335C1020.73 256.392 1015.16 254.98 1010.63 252.454L1000.89 269.924ZM1027.83 276.334C1034.37 276.28 1040.56 275.319 1046.29 273.295L1039.63 254.435C1036.3 255.611 1032.35 256.296 1027.67 256.335L1027.83 276.334ZM1046.42 273.248C1052.16 271.132 1057.27 268.018 1061.62 263.874L1047.83 249.386C1045.56 251.547 1042.83 253.256 1039.5 254.483L1046.42 273.248ZM1061.62 263.874C1066.15 259.568 1069.45 254.322 1071.61 248.342L1052.79 241.57C1051.61 244.85 1049.94 247.387 1047.83 249.386L1061.62 263.874ZM1061.16 254.902L1097.2 258.653L1099.27 238.76L1063.23 235.009L1061.16 254.902ZM1088.49 246.464C1086.66 254.413 1083.16 261.241 1077.96 267.114L1092.93 280.37C1100.4 271.934 1105.42 262.071 1107.98 250.949L1088.49 246.464ZM1077.96 267.118C1072.84 272.908 1066.12 277.601 1057.54 281.08L1065.05 299.616C1076.14 295.12 1085.53 288.743 1092.94 280.366L1077.96 267.118ZM1057.6 281.057C1049.11 284.434 1039.1 286.284 1027.38 286.381L1027.55 306.38C1041.26 306.267 1053.79 304.096 1064.99 299.639L1057.6 281.057ZM1121.53 292.408L1111.53 292.558L1111.68 302.49L1121.61 302.408L1121.53 292.408ZM1121.06 260.664L1120.97 250.664L1110.91 250.747L1111.06 260.813L1121.06 260.664ZM1137.44 257.652L1131.87 249.346L1131.87 249.346L1137.44 257.652ZM1144.6 248.005L1153.83 251.868L1153.84 251.842L1153.85 251.815L1144.6 248.005ZM1148.93 229.644L1139.01 228.35L1139.01 228.35L1148.93 229.644ZM1150.93 200.969L1140.93 200.655L1140.93 200.667L1140.93 200.679L1150.93 200.969ZM1153.2 128.505L1153.12 118.505L1143.51 118.584L1143.21 128.19L1153.2 128.505ZM1272.52 127.52L1282.52 127.438L1282.44 117.438L1272.44 117.52L1272.52 127.52ZM1273.87 291.151L1273.95 301.151L1283.95 301.068L1283.87 291.068L1273.87 291.151ZM1236.58 291.459L1226.58 291.541L1226.67 301.541L1236.67 301.458L1236.58 291.459ZM1235.49 159.467L1245.49 159.385L1245.41 149.385L1235.41 149.468L1235.49 159.467ZM1188.51 159.855L1188.43 149.855L1178.91 149.934L1178.52 159.453L1188.51 159.855ZM1186.39 212.609L1176.4 212.207L1176.4 212.215L1176.4 212.223L1186.39 212.609ZM1182.1 248.121L1172.36 245.857L1172.36 245.882L1172.35 245.907L1182.1 248.121ZM1172.29 272.812L1163.94 267.313L1163.92 267.345L1163.9 267.377L1172.29 272.812ZM1156.33 287.433L1160.75 296.4L1160.79 296.38L1160.83 296.36L1156.33 287.433ZM1131.53 292.258L1131.05 260.514L1111.06 260.813L1111.53 292.558L1131.53 292.258ZM1121.14 270.663L1126.78 270.617L1126.62 250.618L1120.97 250.664L1121.14 270.663ZM1126.78 270.617C1132.56 270.569 1138.16 269.209 1143.01 265.958L1131.87 249.346C1130.93 249.978 1129.36 250.595 1126.62 250.618L1126.78 270.617ZM1143.01 265.958C1148.06 262.573 1151.48 257.475 1153.83 251.868L1135.38 244.141C1133.97 247.514 1132.61 248.848 1131.87 249.346L1143.01 265.958ZM1153.85 251.815C1156.19 246.126 1157.78 239.051 1158.84 230.938L1139.01 228.35C1138.06 235.596 1136.77 240.761 1135.36 244.194L1153.85 251.815ZM1158.84 230.938C1159.9 222.81 1160.58 212.891 1160.92 201.259L1140.93 200.679C1140.6 211.923 1139.95 221.121 1139.01 228.35L1158.84 230.938ZM1160.92 201.283L1163.2 128.819L1143.21 128.19L1140.93 200.655L1160.92 201.283ZM1153.29 138.504L1272.6 137.52L1272.44 117.52L1153.12 118.505L1153.29 138.504ZM1262.52 127.603L1263.87 291.233L1283.87 291.068L1282.52 127.438L1262.52 127.603ZM1273.79 281.151L1236.5 281.459L1236.67 301.458L1273.95 301.151L1273.79 281.151ZM1246.58 291.376L1245.49 159.385L1225.49 159.55L1226.58 291.541L1246.58 291.376ZM1235.41 149.468L1188.43 149.855L1188.6 169.855L1235.58 169.467L1235.41 149.468ZM1178.52 159.453L1176.4 212.207L1196.38 213.011L1198.51 160.257L1178.52 159.453ZM1176.4 212.223C1175.89 225.422 1174.52 236.602 1172.36 245.857L1191.85 250.385C1194.36 239.573 1195.84 227.078 1196.39 212.995L1176.4 212.223ZM1172.35 245.907C1170.28 255.046 1167.39 262.076 1163.94 267.313L1180.65 278.312C1185.76 270.552 1189.41 261.121 1191.86 250.335L1172.35 245.907ZM1163.9 267.377C1160.58 272.501 1156.56 276.115 1151.82 278.506L1160.83 296.36C1168.97 292.253 1175.59 286.12 1180.69 278.248L1163.9 267.377ZM1151.9 278.467C1147.09 280.843 1141.01 282.247 1133.38 282.31L1133.54 302.309C1143.52 302.227 1152.69 300.38 1160.75 296.4L1151.9 278.467ZM1133.38 282.31L1121.45 282.408L1121.61 302.408L1133.54 302.309L1133.38 282.31Z" fill="white" mask="url(#path-1-outside-1_1_5)"/>
</svg>
