<svg width="155" height="1692" viewBox="0 0 155 1692" fill="none" xmlns="http://www.w3.org/2000/svg">
<mask id="path-1-outside-1_209_2" maskUnits="userSpaceOnUse" x="9" y="44" width="147" height="154" fill="black">
<rect fill="white" x="9" y="44" width="147" height="154"/>
<path d="M43.0256 194H14.9006L66.108 48.5455H98.6364L149.915 194H121.79L82.9403 78.375H81.804L43.0256 194ZM43.9489 136.969H120.653V158.134H43.9489V136.969Z"/>
</mask>
<path d="M43.0256 194H14.9006L66.108 48.5455H98.6364L149.915 194H121.79L82.9403 78.375H81.804L43.0256 194ZM43.9489 136.969H120.653V158.134H43.9489V136.969Z" fill="white"/>
<path d="M43.0256 194V198H45.903L46.818 195.272L43.0256 194ZM14.9006 194L11.1276 192.672L9.25172 198H14.9006V194ZM66.108 48.5455V44.5455H63.2755L62.3349 47.2172L66.108 48.5455ZM98.6364 48.5455L102.409 47.2155L101.468 44.5455H98.6364V48.5455ZM149.915 194V198H155.566L153.687 192.67L149.915 194ZM121.79 194L117.998 195.274L118.914 198H121.79V194ZM82.9403 78.375L86.732 77.101L85.8161 74.375H82.9403V78.375ZM81.804 78.375V74.375H78.9265L78.0116 77.1031L81.804 78.375ZM43.9489 136.969V132.969H39.9489V136.969H43.9489ZM120.653 136.969H124.653V132.969H120.653V136.969ZM120.653 158.134V162.134H124.653V158.134H120.653ZM43.9489 158.134H39.9489V162.134H43.9489V158.134ZM43.0256 190H14.9006V198H43.0256V190ZM18.6736 195.328L69.881 49.8737L62.3349 47.2172L11.1276 192.672L18.6736 195.328ZM66.108 52.5455H98.6364V44.5455H66.108V52.5455ZM94.8639 49.8754L146.142 195.33L153.687 192.67L102.409 47.2155L94.8639 49.8754ZM149.915 190H121.79V198H149.915V190ZM125.581 192.726L86.732 77.101L79.1486 79.649L117.998 195.274L125.581 192.726ZM82.9403 74.375H81.804V82.375H82.9403V74.375ZM78.0116 77.1031L39.2332 192.728L46.818 195.272L85.5964 79.6469L78.0116 77.1031ZM43.9489 140.969H120.653V132.969H43.9489V140.969ZM116.653 136.969V158.134H124.653V136.969H116.653ZM120.653 154.134H43.9489V162.134H120.653V154.134ZM47.9489 158.134V136.969H39.9489V158.134H47.9489Z" fill="#ABDFF0" mask="url(#path-1-outside-1_209_2)"/>
<mask id="path-3-outside-2_209_2" maskUnits="userSpaceOnUse" x="11" y="216" width="142" height="154" fill="black">
<rect fill="white" x="11" y="216" width="142" height="154"/>
<path d="M49.3636 220.545L81.3949 273.812H82.5312L114.705 220.545H144.747L99.9318 293.273L145.457 366H114.918L82.5312 313.088H81.3949L49.0085 366H18.6108L64.5625 293.273L19.179 220.545H49.3636Z"/>
</mask>
<path d="M49.3636 220.545L81.3949 273.812H82.5312L114.705 220.545H144.747L99.9318 293.273L145.457 366H114.918L82.5312 313.088H81.3949L49.0085 366H18.6108L64.5625 293.273L19.179 220.545H49.3636Z" fill="white"/>
<path d="M49.3636 220.545L52.7916 218.484L51.6258 216.545H49.3636V220.545ZM81.3949 273.812L77.9669 275.874L79.1327 277.812H81.3949V273.812ZM82.5312 273.812V277.812H84.7883L85.9552 275.881L82.5312 273.812ZM114.705 220.545V216.545H112.448L111.281 218.477L114.705 220.545ZM144.747 220.545L148.153 222.644L151.91 216.545H144.747V220.545ZM99.9318 293.273L96.5264 291.174L95.2231 293.289L96.5413 295.395L99.9318 293.273ZM145.457 366V370H152.68L148.848 363.878L145.457 366ZM114.918 366L111.506 368.088L112.676 370H114.918V366ZM82.5312 313.088L85.9429 311L84.7727 309.088H82.5312V313.088ZM81.3949 313.088V309.088H79.1534L77.9832 311L81.3949 313.088ZM49.0085 366V370H51.25L52.4202 368.088L49.0085 366ZM18.6108 366L15.2292 363.863L11.3519 370H18.6108V366ZM64.5625 293.273L67.9441 295.409L69.2857 293.286L67.956 291.155L64.5625 293.273ZM19.179 220.545V216.545H11.968L15.7855 222.663L19.179 220.545ZM45.9357 222.607L77.9669 275.874L84.8228 271.751L52.7916 218.484L45.9357 222.607ZM81.3949 277.812H82.5312V269.812H81.3949V277.812ZM85.9552 275.881L118.128 222.613L111.281 218.477L79.1073 271.744L85.9552 275.881ZM114.705 224.545H144.747V216.545H114.705V224.545ZM141.342 218.447L96.5264 291.174L103.337 295.371L148.153 222.644L141.342 218.447ZM96.5413 295.395L142.067 368.122L148.848 363.878L103.322 291.15L96.5413 295.395ZM145.457 362H114.918V370H145.457V362ZM118.329 363.912L85.9429 311L79.1196 315.176L111.506 368.088L118.329 363.912ZM82.5312 309.088H81.3949V317.088H82.5312V309.088ZM77.9832 311L45.5969 363.912L52.4202 368.088L84.8065 315.176L77.9832 311ZM49.0085 362H18.6108V370H49.0085V362ZM21.9924 368.137L67.9441 295.409L61.1809 291.136L15.2292 363.863L21.9924 368.137ZM67.956 291.155L22.5725 218.428L15.7855 222.663L61.169 295.39L67.956 291.155ZM19.179 224.545H49.3636V216.545H19.179V224.545Z" fill="#ABDFF0" mask="url(#path-3-outside-2_209_2)"/>
<mask id="path-5-outside-3_209_2" maskUnits="userSpaceOnUse" x="40" y="388" width="71" height="154" fill="black">
<rect fill="white" x="40" y="388" width="71" height="154"/>
<path d="M106.088 392.545V538H79.7386V418.185H78.8864L44.8665 439.918V415.77L81.017 392.545H106.088Z"/>
</mask>
<path d="M106.088 392.545V538H79.7386V418.185H78.8864L44.8665 439.918V415.77L81.017 392.545H106.088Z" fill="white"/>
<path d="M106.088 392.545H110.088V388.545H106.088V392.545ZM106.088 538V542H110.088V538H106.088ZM79.7386 538H75.7386V542H79.7386V538ZM79.7386 418.185H83.7386V414.185H79.7386V418.185ZM78.8864 418.185V414.185H77.7178L76.7329 414.814L78.8864 418.185ZM44.8665 439.918H40.8665V447.219L47.0199 443.288L44.8665 439.918ZM44.8665 415.77L42.7044 412.405L40.8665 413.585V415.77H44.8665ZM81.017 392.545V388.545H79.8429L78.855 389.18L81.017 392.545ZM102.088 392.545V538H110.088V392.545H102.088ZM106.088 534H79.7386V542H106.088V534ZM83.7386 538V418.185H75.7386V538H83.7386ZM79.7386 414.185H78.8864V422.185H79.7386V414.185ZM76.7329 414.814L42.7131 436.547L47.0199 443.288L81.0398 421.556L76.7329 414.814ZM48.8665 439.918V415.77H40.8665V439.918H48.8665ZM47.0285 419.135L83.1791 395.911L78.855 389.18L42.7044 412.405L47.0285 419.135ZM81.017 396.545H106.088V388.545H81.017V396.545Z" fill="#ABDFF0" mask="url(#path-5-outside-3_209_2)"/>
<mask id="path-7-outside-4_209_2" maskUnits="userSpaceOnUse" x="15" y="634" width="125" height="154" fill="black">
<rect fill="white" x="15" y="634" width="125" height="154"/>
<path d="M135.026 638.545V784H108.889V660.42H45.2528V784H19.1165V638.545H135.026Z"/>
</mask>
<path d="M135.026 638.545V784H108.889V660.42H45.2528V784H19.1165V638.545H135.026Z" fill="white"/>
<path d="M135.026 638.545H139.026V634.545H135.026V638.545ZM135.026 784V788H139.026V784H135.026ZM108.889 784H104.889V788H108.889V784ZM108.889 660.42H112.889V656.42H108.889V660.42ZM45.2528 660.42V656.42H41.2528V660.42H45.2528ZM45.2528 784V788H49.2528V784H45.2528ZM19.1165 784H15.1165V788H19.1165V784ZM19.1165 638.545V634.545H15.1165V638.545H19.1165ZM131.026 638.545V784H139.026V638.545H131.026ZM135.026 780H108.889V788H135.026V780ZM112.889 784V660.42H104.889V784H112.889ZM108.889 656.42H45.2528V664.42H108.889V656.42ZM41.2528 660.42V784H49.2528V660.42H41.2528ZM45.2528 780H19.1165V788H45.2528V780ZM23.1165 784V638.545H15.1165V784H23.1165ZM19.1165 642.545H135.026V634.545H19.1165V642.545Z" fill="#ABDFF0" mask="url(#path-7-outside-4_209_2)"/>
<mask id="path-9-outside-5_209_2" maskUnits="userSpaceOnUse" x="23" y="806" width="115" height="154" fill="black">
<rect fill="white" x="23" y="806" width="115" height="154"/>
<path d="M27.3466 956V810.545H81.892C93.0663 810.545 102.441 812.629 110.017 816.795C117.64 820.962 123.393 826.691 127.276 833.983C131.205 841.227 133.17 849.466 133.17 858.699C133.17 868.027 131.205 876.312 127.276 883.557C123.346 890.801 117.545 896.507 109.875 900.673C102.205 904.793 92.7585 906.852 81.5369 906.852H45.3864V885.19H77.9858C84.5199 885.19 89.8703 884.054 94.0369 881.781C98.2036 879.509 101.281 876.384 103.27 872.406C105.306 868.429 106.324 863.86 106.324 858.699C106.324 853.538 105.306 848.992 103.27 845.062C101.281 841.133 98.1799 838.079 93.9659 835.901C89.7992 833.675 84.4252 832.562 77.8438 832.562H53.696V956H27.3466Z"/>
</mask>
<path d="M27.3466 956V810.545H81.892C93.0663 810.545 102.441 812.629 110.017 816.795C117.64 820.962 123.393 826.691 127.276 833.983C131.205 841.227 133.17 849.466 133.17 858.699C133.17 868.027 131.205 876.312 127.276 883.557C123.346 890.801 117.545 896.507 109.875 900.673C102.205 904.793 92.7585 906.852 81.5369 906.852H45.3864V885.19H77.9858C84.5199 885.19 89.8703 884.054 94.0369 881.781C98.2036 879.509 101.281 876.384 103.27 872.406C105.306 868.429 106.324 863.86 106.324 858.699C106.324 853.538 105.306 848.992 103.27 845.062C101.281 841.133 98.1799 838.079 93.9659 835.901C89.7992 833.675 84.4252 832.562 77.8438 832.562H53.696V956H27.3466Z" fill="white"/>
<path d="M27.3466 956H23.3466V960H27.3466V956ZM27.3466 810.545V806.545H23.3466V810.545H27.3466ZM110.017 816.795L108.089 820.3L108.099 820.305L110.017 816.795ZM127.276 833.983L123.745 835.863L123.752 835.877L123.76 835.89L127.276 833.983ZM127.276 883.557L130.792 885.464L130.792 885.464L127.276 883.557ZM109.875 900.673L111.768 904.197L111.776 904.193L111.784 904.188L109.875 900.673ZM45.3864 906.852H41.3864V910.852H45.3864V906.852ZM45.3864 885.19V881.19H41.3864V885.19H45.3864ZM94.0369 881.781L95.9523 885.293L95.9523 885.293L94.0369 881.781ZM103.27 872.406L99.7093 870.584L99.7007 870.6L99.6922 870.617L103.27 872.406ZM103.27 845.062L99.7008 846.869L99.7094 846.886L99.7182 846.903L103.27 845.062ZM93.9659 835.901L92.0815 839.429L92.1053 839.442L92.1293 839.454L93.9659 835.901ZM53.696 832.562V828.562H49.696V832.562H53.696ZM53.696 956V960H57.696V956H53.696ZM31.3466 956V810.545H23.3466V956H31.3466ZM27.3466 814.545H81.892V806.545H27.3466V814.545ZM81.892 814.545C92.5841 814.545 101.252 816.54 108.089 820.3L111.945 813.291C103.63 808.718 93.5485 806.545 81.892 806.545V814.545ZM108.099 820.305C115.074 824.118 120.249 829.297 123.745 835.863L130.806 832.103C126.537 824.086 120.206 817.806 111.936 813.286L108.099 820.305ZM123.76 835.89C127.335 842.481 129.17 850.051 129.17 858.699H137.17C137.17 848.881 135.076 839.973 130.792 832.076L123.76 835.89ZM129.17 858.699C129.17 867.449 127.332 875.064 123.76 881.649L130.792 885.464C135.079 877.561 137.17 868.604 137.17 858.699H129.17ZM123.76 881.649C120.221 888.173 114.999 893.338 107.966 897.158L111.784 904.188C120.092 899.675 126.471 893.429 130.792 885.464L123.76 881.649ZM107.982 897.149C101.038 900.879 92.2836 902.852 81.5369 902.852V910.852C93.2335 910.852 103.371 908.706 111.768 904.197L107.982 897.149ZM81.5369 902.852H45.3864V910.852H81.5369V902.852ZM49.3864 906.852V885.19H41.3864V906.852H49.3864ZM45.3864 889.19H77.9858V881.19H45.3864V889.19ZM77.9858 889.19C84.9493 889.19 91.0184 887.984 95.9523 885.293L92.1215 878.27C88.7221 880.124 84.0905 881.19 77.9858 881.19V889.19ZM95.9523 885.293C100.785 882.657 104.469 878.953 106.848 874.195L99.6922 870.617C98.0939 873.814 95.6222 876.36 92.1215 878.27L95.9523 885.293ZM106.83 874.229C109.197 869.606 110.324 864.395 110.324 858.699H102.324C102.324 863.325 101.415 867.252 99.7093 870.584L106.83 874.229ZM110.324 858.699C110.324 853.004 109.197 847.809 106.822 843.222L99.7182 846.903C101.414 850.176 102.324 854.072 102.324 858.699H110.324ZM106.839 843.256C104.441 838.518 100.703 834.88 95.8025 832.347L92.1293 839.454C95.6574 841.277 98.1215 843.747 99.7008 846.869L106.839 843.256ZM95.8503 832.372C90.9209 829.739 84.838 828.562 77.8438 828.562V836.562C84.0123 836.562 88.6776 837.611 92.0815 839.429L95.8503 832.372ZM77.8438 828.562H53.696V836.562H77.8438V828.562ZM49.696 832.562V956H57.696V832.562H49.696ZM53.696 952H27.3466V960H53.696V952Z" fill="#ABDFF0" mask="url(#path-9-outside-5_209_2)"/>
<mask id="path-11-outside-6_209_2" maskUnits="userSpaceOnUse" x="6" y="976" width="143" height="158" fill="black">
<rect fill="white" x="6" y="976" width="143" height="158"/>
<path d="M144.318 1055.27C144.318 1070.95 141.383 1084.37 135.511 1095.54C129.688 1106.67 121.733 1115.19 111.648 1121.11C101.61 1127.03 90.2225 1129.99 77.4858 1129.99C64.7491 1129.99 53.3381 1127.03 43.2528 1121.11C33.215 1115.14 25.2604 1106.6 19.3892 1095.47C13.5653 1084.3 10.6534 1070.9 10.6534 1055.27C10.6534 1039.6 13.5653 1026.2 19.3892 1015.07C25.2604 1003.9 33.215 995.353 43.2528 989.435C53.3381 983.516 64.7491 980.557 77.4858 980.557C90.2225 980.557 101.61 983.516 111.648 989.435C121.733 995.353 129.688 1003.9 135.511 1015.07C141.383 1026.2 144.318 1039.6 144.318 1055.27ZM117.827 1055.27C117.827 1044.24 116.098 1034.94 112.642 1027.36C109.233 1019.74 104.498 1013.98 98.4375 1010.1C92.3769 1006.17 85.393 1004.21 77.4858 1004.21C69.5786 1004.21 62.5947 1006.17 56.5341 1010.1C50.4735 1013.98 45.715 1019.74 42.2585 1027.36C38.8494 1034.94 37.1449 1044.24 37.1449 1055.27C37.1449 1066.3 38.8494 1075.63 42.2585 1083.26C45.715 1090.83 50.4735 1096.58 56.5341 1100.51C62.5947 1104.4 69.5786 1106.34 77.4858 1106.34C85.393 1106.34 92.3769 1104.4 98.4375 1100.51C104.498 1096.58 109.233 1090.83 112.642 1083.26C116.098 1075.63 117.827 1066.3 117.827 1055.27Z"/>
</mask>
<path d="M144.318 1055.27C144.318 1070.95 141.383 1084.37 135.511 1095.54C129.688 1106.67 121.733 1115.19 111.648 1121.11C101.61 1127.03 90.2225 1129.99 77.4858 1129.99C64.7491 1129.99 53.3381 1127.03 43.2528 1121.11C33.215 1115.14 25.2604 1106.6 19.3892 1095.47C13.5653 1084.3 10.6534 1070.9 10.6534 1055.27C10.6534 1039.6 13.5653 1026.2 19.3892 1015.07C25.2604 1003.9 33.215 995.353 43.2528 989.435C53.3381 983.516 64.7491 980.557 77.4858 980.557C90.2225 980.557 101.61 983.516 111.648 989.435C121.733 995.353 129.688 1003.9 135.511 1015.07C141.383 1026.2 144.318 1039.6 144.318 1055.27ZM117.827 1055.27C117.827 1044.24 116.098 1034.94 112.642 1027.36C109.233 1019.74 104.498 1013.98 98.4375 1010.1C92.3769 1006.17 85.393 1004.21 77.4858 1004.21C69.5786 1004.21 62.5947 1006.17 56.5341 1010.1C50.4735 1013.98 45.715 1019.74 42.2585 1027.36C38.8494 1034.94 37.1449 1044.24 37.1449 1055.27C37.1449 1066.3 38.8494 1075.63 42.2585 1083.26C45.715 1090.83 50.4735 1096.58 56.5341 1100.51C62.5947 1104.4 69.5786 1106.34 77.4858 1106.34C85.393 1106.34 92.3769 1104.4 98.4375 1100.51C104.498 1096.58 109.233 1090.83 112.642 1083.26C116.098 1075.63 117.827 1066.3 117.827 1055.27Z" fill="white"/>
<path d="M135.511 1095.54L131.97 1093.68L131.967 1093.69L135.511 1095.54ZM111.648 1121.11L109.623 1117.66L109.616 1117.67L111.648 1121.11ZM43.2528 1121.11L41.2092 1124.55L41.2187 1124.55L41.2283 1124.56L43.2528 1121.11ZM19.3892 1095.47L15.8421 1097.32L15.8468 1097.33L15.8515 1097.34L19.3892 1095.47ZM19.3892 1015.07L15.8482 1013.21L15.8453 1013.22L19.3892 1015.07ZM43.2528 989.435L41.2283 985.985L41.2212 985.989L43.2528 989.435ZM111.648 989.435L109.616 992.88L109.623 992.884L111.648 989.435ZM135.511 1015.07L131.964 1016.92L131.969 1016.93L131.974 1016.94L135.511 1015.07ZM112.642 1027.36L108.991 1028.99L108.997 1029.01L109.003 1029.02L112.642 1027.36ZM98.4375 1010.1L96.2612 1013.46L96.2705 1013.46L96.2798 1013.47L98.4375 1010.1ZM56.5341 1010.1L58.6918 1013.47L58.7011 1013.46L58.7104 1013.46L56.5341 1010.1ZM42.2585 1027.36L38.6155 1025.71L38.6108 1025.72L42.2585 1027.36ZM42.2585 1083.26L38.607 1084.89L38.6132 1084.9L38.6194 1084.92L42.2585 1083.26ZM56.5341 1100.51L54.3578 1103.87L54.3671 1103.88L54.3764 1103.88L56.5341 1100.51ZM98.4375 1100.51L100.595 1103.88L100.605 1103.88L100.614 1103.87L98.4375 1100.51ZM112.642 1083.26L108.999 1081.6L108.994 1081.61L112.642 1083.26ZM140.318 1055.27C140.318 1070.45 137.476 1083.2 131.97 1093.68L139.052 1097.4C145.289 1085.53 148.318 1071.44 148.318 1055.27H140.318ZM131.967 1093.69C126.464 1104.2 119.015 1112.15 109.623 1117.66L113.672 1124.56C124.451 1118.23 132.911 1109.14 139.055 1097.4L131.967 1093.69ZM109.616 1117.67C100.25 1123.19 89.5765 1125.99 77.4858 1125.99V1133.99C90.8686 1133.99 102.969 1130.87 113.679 1124.56L109.616 1117.67ZM77.4858 1125.99C65.3953 1125.99 54.6946 1123.19 45.2774 1117.66L41.2283 1124.56C51.9815 1130.87 64.1028 1133.99 77.4858 1133.99V1125.99ZM45.2965 1117.67C35.9409 1112.11 28.482 1104.13 22.9269 1093.6L15.8515 1097.34C22.0388 1109.06 30.489 1118.18 41.2092 1124.55L45.2965 1117.67ZM22.9363 1093.62C17.473 1083.14 14.6534 1070.41 14.6534 1055.27H6.65341C6.65341 1071.39 9.65767 1085.45 15.8421 1097.32L22.9363 1093.62ZM14.6534 1055.27C14.6534 1040.09 17.4741 1027.36 22.9331 1016.93L15.8453 1013.22C9.6566 1025.04 6.65341 1039.11 6.65341 1055.27H14.6534ZM22.9302 1016.93C28.4853 1006.36 35.9405 998.39 45.2845 992.88L41.2212 985.989C30.4894 992.317 22.0355 1001.44 15.8482 1013.21L22.9302 1016.93ZM45.2774 992.884C54.6946 987.358 65.3953 984.557 77.4858 984.557V976.557C64.1028 976.557 51.9815 979.674 41.2283 985.985L45.2774 992.884ZM77.4858 984.557C89.5765 984.557 100.25 987.358 109.616 992.88L113.679 985.989C102.969 979.674 90.8686 976.557 77.4858 976.557V984.557ZM109.623 992.884C119.01 998.393 126.459 1006.36 131.964 1016.92L139.059 1013.23C132.916 1001.44 124.456 992.313 113.672 985.985L109.623 992.884ZM131.974 1016.94C137.476 1027.37 140.318 1040.09 140.318 1055.27H148.318C148.318 1039.11 145.29 1025.03 139.049 1013.21L131.974 1016.94ZM121.827 1055.27C121.827 1043.84 120.039 1033.94 116.281 1025.7L109.003 1029.02C112.158 1035.94 113.827 1044.64 113.827 1055.27H121.827ZM116.294 1025.73C112.618 1017.51 107.412 1011.1 100.595 1006.73L96.2798 1013.47C101.584 1016.87 105.847 1021.97 108.991 1028.99L116.294 1025.73ZM100.614 1006.75C93.8441 1002.36 86.0893 1000.21 77.4858 1000.21V1008.21C84.6967 1008.21 90.9097 1009.99 96.2612 1013.46L100.614 1006.75ZM77.4858 1000.21C68.8823 1000.21 61.1275 1002.36 54.3578 1006.75L58.7104 1013.46C64.0619 1009.99 70.2749 1008.21 77.4858 1008.21V1000.21ZM54.3764 1006.73C47.5649 1011.1 42.3378 1017.5 38.6155 1025.71L45.9015 1029.01C49.0921 1021.98 53.382 1016.87 58.6918 1013.47L54.3764 1006.73ZM38.6108 1025.72C34.9066 1033.95 33.1449 1043.85 33.1449 1055.27H41.1449C41.1449 1044.63 42.7922 1035.92 45.9062 1029L38.6108 1025.72ZM33.1449 1055.27C33.1449 1066.7 34.907 1076.62 38.607 1084.89L45.91 1081.62C42.7918 1074.65 41.1449 1065.91 41.1449 1055.27H33.1449ZM38.6194 1084.92C42.3426 1093.08 47.565 1099.47 54.3578 1103.87L58.7104 1097.16C53.3819 1093.7 49.0873 1088.59 45.8977 1081.6L38.6194 1084.92ZM54.3764 1103.88C61.1439 1108.22 68.892 1110.34 77.4858 1110.34V1102.34C70.2652 1102.34 64.0455 1100.58 58.6918 1097.15L54.3764 1103.88ZM77.4858 1110.34C86.0796 1110.34 93.8277 1108.22 100.595 1103.88L96.2798 1097.15C90.9261 1100.58 84.7064 1102.34 77.4858 1102.34V1110.34ZM100.614 1103.87C107.412 1099.46 112.614 1093.07 116.29 1084.9L108.994 1081.61C105.852 1088.6 101.584 1093.71 96.2612 1097.16L100.614 1103.87ZM116.285 1084.91C120.039 1076.63 121.827 1066.7 121.827 1055.27H113.827C113.827 1065.91 112.158 1074.64 108.999 1081.6L116.285 1084.91Z" fill="#ABDFF0" mask="url(#path-11-outside-6_209_2)"/>
<mask id="path-13-outside-7_209_2" maskUnits="userSpaceOnUse" x="26.5" y="1150" width="104" height="154" fill="black">
<rect fill="white" x="26.5" y="1150" width="104" height="154"/>
<path d="M30.8466 1300V1154.55H125.449V1176.63H57.196V1216.12H120.548V1238.21H57.196V1277.91H126.017V1300H30.8466Z"/>
</mask>
<path d="M30.8466 1300V1154.55H125.449V1176.63H57.196V1216.12H120.548V1238.21H57.196V1277.91H126.017V1300H30.8466Z" fill="white"/>
<path d="M30.8466 1300H26.8466V1304H30.8466V1300ZM30.8466 1154.55V1150.55H26.8466V1154.55H30.8466ZM125.449 1154.55H129.449V1150.55H125.449V1154.55ZM125.449 1176.63V1180.63H129.449V1176.63H125.449ZM57.196 1176.63V1172.63H53.196V1176.63H57.196ZM57.196 1216.12H53.196V1220.12H57.196V1216.12ZM120.548 1216.12H124.548V1212.12H120.548V1216.12ZM120.548 1238.21V1242.21H124.548V1238.21H120.548ZM57.196 1238.21V1234.21H53.196V1238.21H57.196ZM57.196 1277.91H53.196V1281.91H57.196V1277.91ZM126.017 1277.91H130.017V1273.91H126.017V1277.91ZM126.017 1300V1304H130.017V1300H126.017ZM34.8466 1300V1154.55H26.8466V1300H34.8466ZM30.8466 1158.55H125.449V1150.55H30.8466V1158.55ZM121.449 1154.55V1176.63H129.449V1154.55H121.449ZM125.449 1172.63H57.196V1180.63H125.449V1172.63ZM53.196 1176.63V1216.12H61.196V1176.63H53.196ZM57.196 1220.12H120.548V1212.12H57.196V1220.12ZM116.548 1216.12V1238.21H124.548V1216.12H116.548ZM120.548 1234.21H57.196V1242.21H120.548V1234.21ZM53.196 1238.21V1277.91H61.196V1238.21H53.196ZM57.196 1281.91H126.017V1273.91H57.196V1281.91ZM122.017 1277.91V1300H130.017V1277.91H122.017ZM126.017 1296H30.8466V1304H126.017V1296Z" fill="#ABDFF0" mask="url(#path-13-outside-7_209_2)"/>
<mask id="path-15-outside-8_209_2" maskUnits="userSpaceOnUse" x="18.5" y="1322" width="132" height="154" fill="black">
<rect fill="white" x="18.5" y="1322" width="132" height="154"/>
<path d="M109.991 1472L62.1222 1408.43H49.196V1472H22.8466V1326.55H49.196V1386.35H55.8011L107.506 1326.55H139.963L82.5057 1392.88L142.449 1472H109.991Z"/>
</mask>
<path d="M109.991 1472L62.1222 1408.43H49.196V1472H22.8466V1326.55H49.196V1386.35H55.8011L107.506 1326.55H139.963L82.5057 1392.88L142.449 1472H109.991Z" fill="white"/>
<path d="M109.991 1472L106.796 1474.41L107.996 1476H109.991V1472ZM62.1222 1408.43L65.3174 1406.03L64.1173 1404.43H62.1222V1408.43ZM49.196 1408.43V1404.43H45.196V1408.43H49.196ZM49.196 1472V1476H53.196V1472H49.196ZM22.8466 1472H18.8466V1476H22.8466V1472ZM22.8466 1326.55V1322.55H18.8466V1326.55H22.8466ZM49.196 1326.55H53.196V1322.55H49.196V1326.55ZM49.196 1386.35H45.196V1390.35H49.196V1386.35ZM55.8011 1386.35V1390.35H57.6305L58.827 1388.96L55.8011 1386.35ZM107.506 1326.55V1322.55H105.676L104.48 1323.93L107.506 1326.55ZM139.963 1326.55L142.987 1329.16L148.72 1322.55H139.963V1326.55ZM82.5057 1392.88L79.4822 1390.26L77.3597 1392.71L79.3174 1395.3L82.5057 1392.88ZM142.449 1472V1476H150.498L145.637 1469.58L142.449 1472ZM113.187 1469.59L65.3174 1406.03L58.9269 1410.84L106.796 1474.41L113.187 1469.59ZM62.1222 1404.43H49.196V1412.43H62.1222V1404.43ZM45.196 1408.43V1472H53.196V1408.43H45.196ZM49.196 1468H22.8466V1476H49.196V1468ZM26.8466 1472V1326.55H18.8466V1472H26.8466ZM22.8466 1330.55H49.196V1322.55H22.8466V1330.55ZM45.196 1326.55V1386.35H53.196V1326.55H45.196ZM49.196 1390.35H55.8011V1382.35H49.196V1390.35ZM58.827 1388.96L110.532 1329.16L104.48 1323.93L52.7753 1383.73L58.827 1388.96ZM107.506 1330.55H139.963V1322.55H107.506V1330.55ZM136.94 1323.93L79.4822 1390.26L85.5292 1395.5L142.987 1329.16L136.94 1323.93ZM79.3174 1395.3L139.261 1474.42L145.637 1469.58L85.694 1390.47L79.3174 1395.3ZM142.449 1468H109.991V1476H142.449V1468Z" fill="#ABDFF0" mask="url(#path-15-outside-8_209_2)"/>
<mask id="path-17-outside-9_209_2" maskUnits="userSpaceOnUse" x="14" y="1494" width="126" height="154" fill="black">
<rect fill="white" x="14" y="1494" width="126" height="154"/>
<path d="M18.9545 1520.63V1498.55H135.006V1520.63H90.0483V1644H63.9119V1520.63H18.9545Z"/>
</mask>
<path d="M18.9545 1520.63V1498.55H135.006V1520.63H90.0483V1644H63.9119V1520.63H18.9545Z" fill="white"/>
<path d="M18.9545 1520.63H14.9545V1524.63H18.9545V1520.63ZM18.9545 1498.55V1494.55H14.9545V1498.55H18.9545ZM135.006 1498.55H139.006V1494.55H135.006V1498.55ZM135.006 1520.63V1524.63H139.006V1520.63H135.006ZM90.0483 1520.63V1516.63H86.0483V1520.63H90.0483ZM90.0483 1644V1648H94.0483V1644H90.0483ZM63.9119 1644H59.9119V1648H63.9119V1644ZM63.9119 1520.63H67.9119V1516.63H63.9119V1520.63ZM22.9545 1520.63V1498.55H14.9545V1520.63H22.9545ZM18.9545 1502.55H135.006V1494.55H18.9545V1502.55ZM131.006 1498.55V1520.63H139.006V1498.55H131.006ZM135.006 1516.63H90.0483V1524.63H135.006V1516.63ZM86.0483 1520.63V1644H94.0483V1520.63H86.0483ZM90.0483 1640H63.9119V1648H90.0483V1640ZM67.9119 1644V1520.63H59.9119V1644H67.9119ZM63.9119 1516.63H18.9545V1524.63H63.9119V1516.63Z" fill="#ABDFF0" mask="url(#path-17-outside-9_209_2)"/>
</svg>
