<svg width="1815" height="987" viewBox="0 0 1815 987" fill="none" xmlns="http://www.w3.org/2000/svg">
<mask id="path-1-outside-1_1_3" maskUnits="userSpaceOnUse" x="7.43258" y="23.9861" width="1697.89" height="958.14" fill="black">
<rect fill="white" x="7.43258" y="23.9861" width="1697.89" height="958.14"/>
<path d="M269.025 946.232L144.625 969.527L250.649 283.751L394.526 256.81L741.809 857.702L617.409 880.996L349.807 401.75L344.78 402.691L269.025 946.232ZM225.873 693.211L565.146 629.681L582.676 723.295L243.402 786.826L225.873 693.211ZM803.46 180.235L989.257 389.312L994.283 388.371L1092.47 126.117L1225.35 101.234L1087.37 460.034L1348.97 744.009L1213.89 769.303L1026.81 562.091L1021.79 563.032L922.362 823.892L787.909 849.069L930.923 489.328L669.95 205.235L803.46 180.235ZM1572.24 36.277L1692.72 679.64L1576.17 701.464L1476.93 171.506L1473.16 172.212L1340.69 296.516L1320.69 189.708L1461.35 57.042L1572.24 36.277Z"/>
</mask>
<path d="M269.025 946.232L270.865 956.061L277.936 954.737L278.929 947.613L269.025 946.232ZM144.625 969.527L134.742 967.999L132.584 981.955L146.465 979.356L144.625 969.527ZM250.649 283.751L248.808 273.922L241.848 275.225L240.766 282.223L250.649 283.751ZM394.526 256.81L403.184 251.806L399.642 245.678L392.685 246.98L394.526 256.81ZM741.809 857.702L743.649 867.531L757.537 864.93L750.467 852.698L741.809 857.702ZM617.409 880.996L608.677 885.871L612.182 892.148L619.249 890.825L617.409 880.996ZM349.807 401.75L358.538 396.874L355.033 390.597L347.966 391.92L349.807 401.75ZM344.78 402.691L342.94 392.862L335.869 394.186L334.876 401.31L344.78 402.691ZM225.873 693.211L224.032 683.382L214.203 685.223L216.044 695.052L225.873 693.211ZM565.146 629.681L574.975 627.841L573.135 618.011L563.306 619.852L565.146 629.681ZM582.676 723.295L584.516 733.125L594.346 731.284L592.505 721.455L582.676 723.295ZM243.402 786.826L233.573 788.666L235.414 798.495L245.243 796.655L243.402 786.826ZM267.184 936.403L142.784 959.698L146.465 979.356L270.865 956.061L267.184 936.403ZM154.507 971.055L260.531 285.279L240.766 282.223L134.742 967.999L154.507 971.055ZM252.489 293.58L396.366 266.639L392.685 246.98L248.808 273.922L252.489 293.58ZM385.868 261.813L733.151 862.705L750.467 852.698L403.184 251.806L385.868 261.813ZM739.968 847.872L615.568 871.167L619.249 890.825L743.649 867.531L739.968 847.872ZM626.14 876.121L358.538 396.874L341.076 406.625L608.677 885.871L626.14 876.121ZM347.966 391.92L342.94 392.862L346.621 412.52L351.647 411.579L347.966 391.92ZM334.876 401.31L259.121 944.852L278.929 947.613L354.685 404.071L334.876 401.31ZM227.713 703.041L566.987 639.51L563.306 619.852L224.032 683.382L227.713 703.041ZM555.317 631.522L572.847 725.136L592.505 721.455L574.975 627.841L555.317 631.522ZM580.835 713.466L241.562 776.997L245.243 796.655L584.516 733.125L580.835 713.466ZM253.232 784.985L235.702 691.371L216.044 695.052L233.573 788.666L253.232 784.985ZM803.46 180.235L810.935 173.592L807.179 169.365L801.62 170.406L803.46 180.235ZM989.257 389.312L981.782 395.954L985.539 400.182L991.097 399.141L989.257 389.312ZM994.283 388.371L996.124 398.2L1001.67 397.161L1003.65 391.877L994.283 388.371ZM1092.47 126.117L1090.63 116.287L1085.08 117.326L1083.11 122.61L1092.47 126.117ZM1225.35 101.234L1234.69 104.823L1241.12 88.1085L1223.51 91.4046L1225.35 101.234ZM1087.37 460.034L1078.03 456.444L1075.8 462.241L1080.01 466.809L1087.37 460.034ZM1348.97 744.009L1350.81 753.838L1368.56 750.514L1356.32 737.233L1348.97 744.009ZM1213.89 769.303L1206.46 776.004L1210.22 780.164L1215.73 779.132L1213.89 769.303ZM1026.81 562.091L1034.24 555.39L1030.48 551.231L1024.97 552.262L1026.81 562.091ZM1021.79 563.032L1019.95 553.203L1014.44 554.235L1012.44 559.471L1021.79 563.032ZM922.362 823.892L924.203 833.721L929.711 832.69L931.706 827.454L922.362 823.892ZM787.909 849.069L778.617 845.375L771.913 862.238L789.75 858.898L787.909 849.069ZM930.923 489.328L940.216 493.022L942.535 487.187L938.287 482.563L930.923 489.328ZM669.95 205.235L668.109 195.406L650.39 198.724L662.586 212L669.95 205.235ZM795.985 186.878L981.782 395.954L996.732 382.669L810.935 173.592L795.985 186.878ZM991.097 399.141L996.124 398.2L992.443 378.541L987.416 379.483L991.097 399.141ZM1003.65 391.877L1101.84 129.623L1083.11 122.61L984.918 384.864L1003.65 391.877ZM1094.31 135.946L1227.19 111.063L1223.51 91.4046L1090.63 116.287L1094.31 135.946ZM1216.02 97.6443L1078.03 456.444L1096.7 463.623L1234.69 104.823L1216.02 97.6443ZM1080.01 466.809L1341.61 750.784L1356.32 737.233L1094.72 453.258L1080.01 466.809ZM1347.13 734.18L1212.05 759.474L1215.73 779.132L1350.81 753.838L1347.13 734.18ZM1221.31 762.602L1034.24 555.39L1019.39 568.792L1206.46 776.004L1221.31 762.602ZM1024.97 552.262L1019.95 553.203L1023.63 572.862L1028.65 571.92L1024.97 552.262ZM1012.44 559.471L913.018 820.331L931.706 827.454L1031.13 566.594L1012.44 559.471ZM920.521 814.063L786.069 839.24L789.75 858.898L924.203 833.721L920.521 814.063ZM797.202 852.763L940.216 493.022L921.63 485.634L778.617 845.375L797.202 852.763ZM938.287 482.563L677.314 198.47L662.586 212L923.559 496.093L938.287 482.563ZM671.79 215.064L805.301 190.064L801.62 170.406L668.109 195.406L671.79 215.064ZM1572.24 36.277L1582.07 34.4364L1580.23 24.6073L1570.4 26.4478L1572.24 36.277ZM1692.72 679.64L1694.56 689.469L1704.39 687.629L1702.55 677.8L1692.72 679.64ZM1576.17 701.464L1566.34 703.305L1568.18 713.134L1578.01 711.293L1576.17 701.464ZM1476.93 171.506L1486.76 169.666L1484.92 159.836L1475.09 161.677L1476.93 171.506ZM1473.16 172.212L1471.32 162.383L1468.45 162.921L1466.32 164.92L1473.16 172.212ZM1340.69 296.516L1330.86 298.357L1334.22 316.3L1347.53 303.809L1340.69 296.516ZM1320.69 189.708L1313.83 182.433L1309.86 186.181L1310.86 191.549L1320.69 189.708ZM1461.35 57.042L1459.51 47.2128L1456.63 47.7531L1454.49 49.7671L1461.35 57.042ZM1562.42 38.1175L1682.89 681.481L1702.55 677.8L1582.07 34.4364L1562.42 38.1175ZM1690.88 669.811L1574.33 691.635L1578.01 711.293L1694.56 689.469L1690.88 669.811ZM1586 699.623L1486.76 169.666L1467.1 173.347L1566.34 703.305L1586 699.623ZM1475.09 161.677L1471.32 162.383L1475 182.041L1478.77 181.335L1475.09 161.677ZM1466.32 164.92L1333.85 289.224L1347.53 303.809L1480.01 179.504L1466.32 164.92ZM1350.52 294.676L1330.52 187.868L1310.86 191.549L1330.86 298.357L1350.52 294.676ZM1327.55 196.983L1468.21 64.3168L1454.49 49.7671L1313.83 182.433L1327.55 196.983ZM1463.19 66.8711L1574.09 46.1061L1570.4 26.4478L1459.51 47.2128L1463.19 66.8711Z" fill="white" mask="url(#path-1-outside-1_1_3)"/>
</svg>
